<?xml version="1.0" standalone="no"?>
<!DOCTYPE svg PUBLIC "-//W3C//DTD SVG 20010904//EN"
 "http://www.w3.org/TR/2001/REC-SVG-20010904/DTD/svg10.dtd">
<svg version="1.0" xmlns="http://www.w3.org/2000/svg"
 width="360.000000pt" height="360.000000pt" viewBox="0 0 360.000000 360.000000"
 preserveAspectRatio="xMidYMid meet">
<metadata>
Created by potrace 1.11, written by Peter Selinger 2001-2013
</metadata>
<g transform="translate(0.000000,360.000000) scale(0.100000,-0.100000)"
fill="#000000" stroke="none">
<path d="M1240 3131 c0 -3 41 -154 89 -336 64 -236 86 -332 78 -337 -34 -19
-133 -99 -223 -179 -296 -262 -497 -587 -544 -881 -17 -107 -8 -311 19 -409
42 -155 146 -356 238 -458 36 -40 44 -43 133 -61 402 -80 897 -88 1315 -19
220 36 209 30 295 141 128 165 224 355 277 546 25 89 27 112 27 282 0 171 -2
192 -26 270 -61 196 -146 336 -307 503 -59 60 -154 145 -213 189 l-106 79 150
215 c82 119 151 221 154 229 8 19 -134 109 -228 145 -111 43 -168 53 -277 48
-82 -4 -111 -10 -196 -43 -97 -38 -104 -39 -220 -39 -141 1 -233 22 -356 83
-43 21 -79 36 -79 32z m1057 -136 c70 -24 203 -90 203 -102 0 -4 -163 -242
-265 -385 -26 -38 -27 -38 -97 -38 -63 0 -69 2 -63 18 31 79 153 427 150 430
-11 12 -29 -28 -101 -227 l-79 -221 -67 0 -68 0 0 90 c0 53 -4 90 -10 90 -6 0
-10 -37 -10 -90 l0 -90 -45 0 c-52 0 -48 -12 -69 173 -8 71 -17 131 -20 134
-15 16 -16 -14 -1 -130 23 -188 25 -177 -40 -177 -53 0 -54 1 -63 33 -5 17
-28 100 -52 183 -42 153 -54 183 -65 172 -5 -5 63 -265 95 -360 l9 -28 -73 0
-74 0 -31 118 c-18 64 -48 176 -67 247 -19 72 -37 137 -40 146 -4 14 7 13 77
-7 183 -54 329 -50 494 11 50 18 101 36 115 38 54 11 181 -3 257 -28z m-6
-627 c578 -402 734 -908 452 -1473 -50 -101 -138 -235 -192 -295 -31 -35 -45
-42 -111 -56 -350 -73 -854 -83 -1250 -24 -228 34 -220 31 -280 113 -68 94
-154 272 -181 372 -29 113 -36 275 -15 394 51 294 268 618 589 884 55 45 118
94 141 109 l41 28 366 0 366 0 74 -52z"/>
<path d="M1650 2076 c-266 -56 -484 -262 -550 -522 -24 -94 -26 -251 -5 -341
59 -250 260 -456 515 -529 99 -28 282 -26 380 5 244 76 410 234 490 467 63
182 37 407 -66 585 -46 80 -170 202 -255 252 -141 83 -348 116 -509 83z m250
-186 c0 -48 4 -72 13 -74 37 -9 186 -59 197 -66 14 -9 -5 -43 -62 -112 l-23
-28 -53 27 c-109 54 -274 40 -302 -26 -9 -23 -9 -33 1 -49 18 -28 100 -75 195
-112 45 -17 109 -48 142 -70 79 -50 112 -101 119 -177 4 -50 1 -66 -24 -112
-33 -65 -78 -103 -159 -136 l-59 -24 -3 -70 -3 -71 -89 0 -90 0 0 68 0 68 -60
12 c-62 11 -172 56 -189 76 -7 8 2 31 29 72 22 32 43 59 47 58 5 0 34 -12 65
-28 74 -35 160 -49 227 -36 62 12 85 23 105 52 39 55 -5 120 -112 163 -217 89
-278 129 -318 211 -25 52 -26 58 -15 108 16 71 67 130 145 167 34 16 67 29 74
29 8 0 12 20 12 68 0 38 3 72 7 75 3 4 46 7 95 7 l88 0 0 -70z"/>
</g>
</svg>
